<svg xmlns="http://www.w3.org/2000/svg" xmlns:xlink="http://www.w3.org/1999/xlink" contentStyleType="text/css" data-diagram-type="DESCRIPTION" height="535px" preserveAspectRatio="none" style="width:13549px;height:535px;background:#FFFFFF;" version="1.1" viewBox="0 0 13549 535" width="13549px" zoomAndPan="magnify"><?plantuml 1.2026.6?><defs/><g><!--cluster n_1d8bdc7dcfa03e316c575c63fa8b0bc4--><g class="cluster" data-qualified-name="n_1d8bdc7dcfa03e316c575c63fa8b0bc4" data-source-line="4" id="ent0001"><path d="M5018.5,6 L5187.5205,6 A3.75,3.75 0 0 1 5190.0205,8.5 L5197.0205,29.6094 L6505.5,29.6094 A2.5,2.5 0 0 1 6508,32.1094 L6508,103.5 A2.5,2.5 0 0 1 6505.5,106 L5018.5,106 A2.5,2.5 0 0 1 5016,103.5 L5016,8.5 A2.5,2.5 0 0 1 5018.5,6" fill="none" style="stroke:#000000;stroke-width:1.5;"/><line style="stroke:#000000;stroke-width:1.5;" x1="5016" x2="5197.0205" y1="29.6094" y2="29.6094"/><text fill="#000000" font-family="sans-serif" font-size="14" font-weight="700" lengthAdjust="spacing" textLength="168.0205" x="5020" y="22.5332">01 WORLD_AND_GOALS</text></g><!--cluster n_fd5062a896bba43a5f02f1dc03969bb7--><g class="cluster" data-qualified-name="n_fd5062a896bba43a5f02f1dc03969bb7" data-source-line="8" id="ent0004"><path d="M6534.5,6 L6757.2236,6 A3.75,3.75 0 0 1 6759.7236,8.5 L6766.7236,29.6094 L7956.5,29.6094 A2.5,2.5 0 0 1 7959,32.1094 L7959,103.5 A2.5,2.5 0 0 1 7956.5,106 L6534.5,106 A2.5,2.5 0 0 1 6532,103.5 L6532,8.5 A2.5,2.5 0 0 1 6534.5,6" fill="none" style="stroke:#000000;stroke-width:1.5;"/><line style="stroke:#000000;stroke-width:1.5;" x1="6532" x2="6766.7236" y1="29.6094" y2="29.6094"/><text fill="#000000" font-family="sans-serif" font-size="14" font-weight="700" lengthAdjust="spacing" textLength="221.7236" x="6536" y="22.5332">02 EVIDENCE_AND_REASONING</text></g><!--cluster n_e54003af96b10eb34be8fdcbd163405d--><g class="cluster" data-qualified-name="n_e54003af96b10eb34be8fdcbd163405d" data-source-line="12" id="ent0007"><path d="M7985.5,6 L8087.6309,6 A3.75,3.75 0 0 1 8090.1309,8.5 L8097.1309,29.6094 L9261.5,29.6094 A2.5,2.5 0 0 1 9264,32.1094 L9264,103.5 A2.5,2.5 0 0 1 9261.5,106 L7985.5,106 A2.5,2.5 0 0 1 7983,103.5 L7983,8.5 A2.5,2.5 0 0 1 7985.5,6" fill="none" style="stroke:#000000;stroke-width:1.5;"/><line style="stroke:#000000;stroke-width:1.5;" x1="7983" x2="8097.1309" y1="29.6094" y2="29.6094"/><text fill="#000000" font-family="sans-serif" font-size="14" font-weight="700" lengthAdjust="spacing" textLength="101.1309" x="7987" y="22.5332">03 EVOLUTION</text></g><!--cluster n_5ef716573332bf1aa96c35cd249bb219--><g class="cluster" data-qualified-name="n_5ef716573332bf1aa96c35cd249bb219" data-source-line="16" id="ent0010"><path d="M9290.5,6 L9509.2998,6 A3.75,3.75 0 0 1 9511.7998,8.5 L9518.7998,29.6094 L9967.5,29.6094 A2.5,2.5 0 0 1 9970,32.1094 L9970,103.5 A2.5,2.5 0 0 1 9967.5,106 L9290.5,106 A2.5,2.5 0 0 1 9288,103.5 L9288,8.5 A2.5,2.5 0 0 1 9290.5,6" fill="none" style="stroke:#000000;stroke-width:1.5;"/><line style="stroke:#000000;stroke-width:1.5;" x1="9288" x2="9518.7998" y1="29.6094" y2="29.6094"/><text fill="#000000" font-family="sans-serif" font-size="14" font-weight="700" lengthAdjust="spacing" textLength="217.7998" x="9292" y="22.5332">04 ORGANIZATION_AND_FLEET</text></g><!--cluster n_f9d02c858c4a6091ba0a09abc9053a08--><g class="cluster" data-qualified-name="n_f9d02c858c4a6091ba0a09abc9053a08" data-source-line="19" id="ent0012"><path d="M9996.5,6 L10244.8721,6 A3.75,3.75 0 0 1 10247.3721,8.5 L10254.3721,29.6094 L11353.5,29.6094 A2.5,2.5 0 0 1 11356,32.1094 L11356,103.5 A2.5,2.5 0 0 1 11353.5,106 L9996.5,106 A2.5,2.5 0 0 1 9994,103.5 L9994,8.5 A2.5,2.5 0 0 1 9996.5,6" fill="none" style="stroke:#000000;stroke-width:1.5;"/><line style="stroke:#000000;stroke-width:1.5;" x1="9994" x2="10254.3721" y1="29.6094" y2="29.6094"/><text fill="#000000" font-family="sans-serif" font-size="14" font-weight="700" lengthAdjust="spacing" textLength="247.3721" x="9998" y="22.5332">05 AUTHORITY_AND_GOVERNANCE</text></g><!--cluster n_dad9ff75eba9b27fb30204b7376ffa90--><g class="cluster" data-qualified-name="n_dad9ff75eba9b27fb30204b7376ffa90" data-source-line="23" id="ent0015"><path d="M8.5,6 L243.6309,6 A3.75,3.75 0 0 1 246.1309,8.5 L253.1309,29.6094 L1572.5,29.6094 A2.5,2.5 0 0 1 1575,32.1094 L1575,216.5 A2.5,2.5 0 0 1 1572.5,219 L8.5,219 A2.5,2.5 0 0 1 6,216.5 L6,8.5 A2.5,2.5 0 0 1 8.5,6" fill="none" style="stroke:#000000;stroke-width:1.5;"/><line style="stroke:#000000;stroke-width:1.5;" x1="6" x2="253.1309" y1="29.6094" y2="29.6094"/><text fill="#000000" font-family="sans-serif" font-size="14" font-weight="700" lengthAdjust="spacing" textLength="234.1309" x="10" y="22.5332">06 BUILD_AND_IMPLEMENTATION</text></g><!--cluster n_13e9bcbaf756ab52cae6df48f4f88046--><g class="cluster" data-qualified-name="n_13e9bcbaf756ab52cae6df48f4f88046" data-source-line="28" id="ent0019"><path d="M11382.5,6 L11540.6309,6 A3.75,3.75 0 0 1 11543.1309,8.5 L11550.1309,29.6094 L12749.5,29.6094 A2.5,2.5 0 0 1 12752,32.1094 L12752,103.5 A2.5,2.5 0 0 1 12749.5,106 L11382.5,106 A2.5,2.5 0 0 1 11380,103.5 L11380,8.5 A2.5,2.5 0 0 1 11382.5,6" fill="none" style="stroke:#000000;stroke-width:1.5;"/><line style="stroke:#000000;stroke-width:1.5;" x1="11380" x2="11550.1309" y1="29.6094" y2="29.6094"/><text fill="#000000" font-family="sans-serif" font-size="14" font-weight="700" lengthAdjust="spacing" textLength="157.1309" x="11384" y="22.5332">07 TRUSTED_RUNTIME</text></g><!--cluster n_c55d0b89e3f10a7a9412f96a2c424a37--><g class="cluster" data-qualified-name="n_c55d0b89e3f10a7a9412f96a2c424a37" data-source-line="34" id="ent0023"><path d="M12778.5,6 L13068.0928,6 A3.75,3.75 0 0 1 13070.5928,8.5 L13077.5928,29.6094 L13531.5,29.6094 A2.5,2.5 0 0 1 13534,32.1094 L13534,103.5 A2.5,2.5 0 0 1 13531.5,106 L12778.5,106 A2.5,2.5 0 0 1 12776,103.5 L12776,8.5 A2.5,2.5 0 0 1 12778.5,6" fill="none" style="stroke:#000000;stroke-width:1.5;"/><line style="stroke:#000000;stroke-width:1.5;" x1="12776" x2="13077.5928" y1="29.6094" y2="29.6094"/><text fill="#000000" font-family="sans-serif" font-size="14" font-weight="700" lengthAdjust="spacing" textLength="288.5928" x="12780" y="22.5332">09 OBSERVATION_AND_RECONCILIATION</text></g><!--cluster IMPLEMENTATION GAP OVERLAY--><g class="cluster" data-qualified-name="IMPLEMENTATION GAP OVERLAY" data-source-line="37" id="ent0025"><path d="M1601.5,6 L1834.2861,6 A3.75,3.75 0 0 1 1836.7861,8.5 L1843.7861,29.6094 L4673.5,29.6094 A2.5,2.5 0 0 1 4676,32.1094 L4676,324.5 A2.5,2.5 0 0 1 4673.5,327 L1601.5,327 A2.5,2.5 0 0 1 1599,324.5 L1599,8.5 A2.5,2.5 0 0 1 1601.5,6" fill="none" style="stroke:#000000;stroke-width:1.5;"/><line style="stroke:#000000;stroke-width:1.5;" x1="1599" x2="1843.7861" y1="29.6094" y2="29.6094"/><text fill="#000000" font-family="sans-serif" font-size="14" font-weight="700" lengthAdjust="spacing" textLength="231.7861" x="1603" y="22.5332">IMPLEMENTATION GAP OVERLAY</text></g><!--entity v_d5b65de151f37f8185976753c272908d--><g class="entity" data-qualified-name="n_1d8bdc7dcfa03e316c575c63fa8b0bc4.v_d5b65de151f37f8185976753c272908d" data-source-line="5" id="ent0002"><rect fill="#F1F1F1" height="47.6094" rx="2.5" ry="2.5" style="stroke:#181818;stroke-width:0.5;" width="758.9287" x="5732.5" y="42"/><rect fill="#F1F1F1" height="10" style="stroke:#181818;stroke-width:0.5;" width="15" x="6471.4287" y="47"/><rect fill="#F1F1F1" height="2" style="stroke:#181818;stroke-width:0.5;" width="4" x="6469.4287" y="49"/><rect fill="#F1F1F1" height="2" style="stroke:#181818;stroke-width:0.5;" width="4" x="6469.4287" y="53"/><text fill="#000000" font-family="sans-serif" font-size="14" lengthAdjust="spacing" textLength="718.9287" x="5747.5" y="76.5332">[P] System context and target boundary\nPARTIALLY_IMPLEMENTED\ncyber_lion/TARGET_ARCHITECTURE.md</text></g><!--entity v_e1d090ed0176ed21154011aec05a07ed--><g class="entity" data-qualified-name="n_1d8bdc7dcfa03e316c575c63fa8b0bc4.v_e1d090ed0176ed21154011aec05a07ed" data-source-line="6" id="ent0003"><rect fill="#F1F1F1" height="47.6094" rx="2.5" ry="2.5" style="stroke:#181818;stroke-width:0.5;" width="664.7568" x="5032.5" y="42"/><rect fill="#F1F1F1" height="10" style="stroke:#181818;stroke-width:0.5;" width="15" x="5677.2568" y="47"/><rect fill="#F1F1F1" height="2" style="stroke:#181818;stroke-width:0.5;" width="4" x="5675.2568" y="49"/><rect fill="#F1F1F1" height="2" style="stroke:#181818;stroke-width:0.5;" width="4" x="5675.2568" y="53"/><text fill="#000000" font-family="sans-serif" font-size="14" lengthAdjust="spacing" textLength="624.7568" x="5047.5" y="76.5332">[T] Target Bean Factory\nTARGET_ONLY\ncyber_lion/TARGET_ARCHITECTURE.md#bean-factory</text></g><!--entity v_a044c01264e026861f7f8360545ff5dc--><g class="entity" data-qualified-name="n_fd5062a896bba43a5f02f1dc03969bb7.v_a044c01264e026861f7f8360545ff5dc" data-source-line="9" id="ent0005"><rect fill="#F1F1F1" height="47.6094" rx="2.5" ry="2.5" style="stroke:#181818;stroke-width:0.5;" width="674.9424" x="7267.5" y="42"/><rect fill="#F1F1F1" height="10" style="stroke:#181818;stroke-width:0.5;" width="15" x="7922.4424" y="47"/><rect fill="#F1F1F1" height="2" style="stroke:#181818;stroke-width:0.5;" width="4" x="7920.4424" y="49"/><rect fill="#F1F1F1" height="2" style="stroke:#181818;stroke-width:0.5;" width="4" x="7920.4424" y="53"/><text fill="#000000" font-family="sans-serif" font-size="14" lengthAdjust="spacing" textLength="634.9424" x="7282.5" y="76.5332">[V] Evidence and epistemic R&amp;D\nVERIFIED_REFERENCE\ncyber_lion/contracts/evolutionary_rnd.py</text></g><!--entity v_c64378184fb9c4b5967cc81321f4f845--><g class="entity" data-qualified-name="n_fd5062a896bba43a5f02f1dc03969bb7.v_c64378184fb9c4b5967cc81321f4f845" data-source-line="10" id="ent0006"><rect fill="#F1F1F1" height="47.6094" rx="2.5" ry="2.5" style="stroke:#181818;stroke-width:0.5;" width="683.5215" x="6548" y="42"/><rect fill="#F1F1F1" height="10" style="stroke:#181818;stroke-width:0.5;" width="15" x="7211.5215" y="47"/><rect fill="#F1F1F1" height="2" style="stroke:#181818;stroke-width:0.5;" width="4" x="7209.5215" y="49"/><rect fill="#F1F1F1" height="2" style="stroke:#181818;stroke-width:0.5;" width="4" x="7209.5215" y="53"/><text fill="#000000" font-family="sans-serif" font-size="14" lengthAdjust="spacing" textLength="643.5215" x="6563" y="76.5332">[V] Deterministic code perception\nVERIFIED_REFERENCE\ncyber_lion/enterprise/code_perception.py</text></g><!--entity v_88fbf0812ae89d0743300eafe7dfe10d--><g class="entity" data-qualified-name="n_e54003af96b10eb34be8fdcbd163405d.v_88fbf0812ae89d0743300eafe7dfe10d" data-source-line="13" id="ent0008"><rect fill="#F1F1F1" height="47.6094" rx="2.5" ry="2.5" style="stroke:#181818;stroke-width:0.5;" width="636.0732" x="8612" y="42"/><rect fill="#F1F1F1" height="10" style="stroke:#181818;stroke-width:0.5;" width="15" x="9228.0732" y="47"/><rect fill="#F1F1F1" height="2" style="stroke:#181818;stroke-width:0.5;" width="4" x="9226.0732" y="49"/><rect fill="#F1F1F1" height="2" style="stroke:#181818;stroke-width:0.5;" width="4" x="9226.0732" y="53"/><text fill="#000000" font-family="sans-serif" font-size="14" lengthAdjust="spacing" textLength="596.0732" x="8627" y="76.5332">[V] Evolutionary epoch\nVERIFIED_REFERENCE\ncyber_lion/enterprise/evolutionary_epoch.py</text></g><!--entity v_e0241b3a8e6ceeab2cb496ed0d7b5f31--><g class="entity" data-qualified-name="n_e54003af96b10eb34be8fdcbd163405d.v_e0241b3a8e6ceeab2cb496ed0d7b5f31" data-source-line="14" id="ent0009"><rect fill="#F1F1F1" height="47.6094" rx="2.5" ry="2.5" style="stroke:#181818;stroke-width:0.5;" width="577.7148" x="7999" y="42"/><rect fill="#F1F1F1" height="10" style="stroke:#181818;stroke-width:0.5;" width="15" x="8556.7148" y="47"/><rect fill="#F1F1F1" height="2" style="stroke:#181818;stroke-width:0.5;" width="4" x="8554.7148" y="49"/><rect fill="#F1F1F1" height="2" style="stroke:#181818;stroke-width:0.5;" width="4" x="8554.7148" y="53"/><text fill="#000000" font-family="sans-serif" font-size="14" lengthAdjust="spacing" textLength="537.7148" x="8014" y="76.5332">[I] Startup Evolution Agent\nIMPLEMENTED\ncyber_lion/startup_agent/orchestrator.py</text></g><!--entity v_a262824dbcff3dc8e4ad793c2d17ab95--><g class="entity" data-qualified-name="n_5ef716573332bf1aa96c35cd249bb219.v_a262824dbcff3dc8e4ad793c2d17ab95" data-source-line="17" id="ent0011"><rect fill="#F1F1F1" height="47.6094" rx="2.5" ry="2.5" style="stroke:#181818;stroke-width:0.5;" width="650.0459" x="9304" y="42"/><rect fill="#F1F1F1" height="10" style="stroke:#181818;stroke-width:0.5;" width="15" x="9934.0459" y="47"/><rect fill="#F1F1F1" height="2" style="stroke:#181818;stroke-width:0.5;" width="4" x="9932.0459" y="49"/><rect fill="#F1F1F1" height="2" style="stroke:#181818;stroke-width:0.5;" width="4" x="9932.0459" y="53"/><text fill="#000000" font-family="sans-serif" font-size="14" lengthAdjust="spacing" textLength="610.0459" x="9319" y="76.5332">[P] Fleet and swarm organization\nPARTIALLY_IMPLEMENTED\ncyber_lion/enterprise/models.py</text></g><!--entity v_4b6c62938a15e8a90815cf748cf6224d--><g class="entity" data-qualified-name="n_f9d02c858c4a6091ba0a09abc9053a08.v_4b6c62938a15e8a90815cf748cf6224d" data-source-line="20" id="ent0013"><rect fill="#F1F1F1" height="47.6094" rx="2.5" ry="2.5" style="stroke:#181818;stroke-width:0.5;" width="644.6387" x="10694.5" y="42"/><rect fill="#F1F1F1" height="10" style="stroke:#181818;stroke-width:0.5;" width="15" x="11319.1387" y="47"/><rect fill="#F1F1F1" height="2" style="stroke:#181818;stroke-width:0.5;" width="4" x="11317.1387" y="49"/><rect fill="#F1F1F1" height="2" style="stroke:#181818;stroke-width:0.5;" width="4" x="11317.1387" y="53"/><text fill="#000000" font-family="sans-serif" font-size="14" lengthAdjust="spacing" textLength="604.6387" x="10709.5" y="76.5332">[V] Constitution and governance\nVERIFIED_REFERENCE\ncyber_lion/enterprise/policy_gate.py</text></g><!--entity v_ee75e5d6d4de3676ce817dd55da75a4c--><g class="entity" data-qualified-name="n_f9d02c858c4a6091ba0a09abc9053a08.v_ee75e5d6d4de3676ce817dd55da75a4c" data-source-line="21" id="ent0014"><rect fill="#F1F1F1" height="47.6094" rx="2.5" ry="2.5" style="stroke:#181818;stroke-width:0.5;" width="649.3008" x="10010.5" y="42"/><rect fill="#F1F1F1" height="10" style="stroke:#181818;stroke-width:0.5;" width="15" x="10639.8008" y="47"/><rect fill="#F1F1F1" height="2" style="stroke:#181818;stroke-width:0.5;" width="4" x="10637.8008" y="49"/><rect fill="#F1F1F1" height="2" style="stroke:#181818;stroke-width:0.5;" width="4" x="10637.8008" y="53"/><text fill="#000000" font-family="sans-serif" font-size="14" lengthAdjust="spacing" textLength="609.3008" x="10025.5" y="76.5332">[V] Authority and effect boundary\nVERIFIED_REFERENCE\ncyber_lion/enterprise/policy_gate.py</text></g><!--entity v_67c0bc5e4b323db372fdf3eae16808ec--><g class="entity" data-qualified-name="n_dad9ff75eba9b27fb30204b7376ffa90.v_67c0bc5e4b323db372fdf3eae16808ec" data-source-line="24" id="ent0016"><rect fill="#F1F1F1" height="47.6094" rx="2.5" ry="2.5" style="stroke:#181818;stroke-width:0.5;" width="733.3076" x="22.5" y="42"/><rect fill="#F1F1F1" height="10" style="stroke:#181818;stroke-width:0.5;" width="15" x="735.8076" y="47"/><rect fill="#F1F1F1" height="2" style="stroke:#181818;stroke-width:0.5;" width="4" x="733.8076" y="49"/><rect fill="#F1F1F1" height="2" style="stroke:#181818;stroke-width:0.5;" width="4" x="733.8076" y="53"/><text fill="#000000" font-family="sans-serif" font-size="14" lengthAdjust="spacing" textLength="693.3076" x="37.5" y="76.5332">[V] Canonical architecture projection\nVERIFIED_REFERENCE\ncyber_lion/architecture_projection/extractor.py</text></g><!--entity v_72f03e5e16048a0590fc9990fd0bdd99--><g class="entity" data-qualified-name="n_dad9ff75eba9b27fb30204b7376ffa90.v_72f03e5e16048a0590fc9990fd0bdd99" data-source-line="25" id="ent0017"><rect fill="#F1F1F1" height="47.6094" rx="2.5" ry="2.5" style="stroke:#181818;stroke-width:0.5;" width="768.3486" x="791" y="42"/><rect fill="#F1F1F1" height="10" style="stroke:#181818;stroke-width:0.5;" width="15" x="1539.3486" y="47"/><rect fill="#F1F1F1" height="2" style="stroke:#181818;stroke-width:0.5;" width="4" x="1537.3486" y="49"/><rect fill="#F1F1F1" height="2" style="stroke:#181818;stroke-width:0.5;" width="4" x="1537.3486" y="53"/><text fill="#000000" font-family="sans-serif" font-size="14" lengthAdjust="spacing" textLength="728.3486" x="806" y="76.5332">[V] Repository mutation reference path\nVERIFIED_REFERENCE\ncyber_lion/enterprise/repository_mutation_pep.py</text></g><!--entity v_a27a7844871f0661c136594587240964--><g class="entity" data-qualified-name="n_dad9ff75eba9b27fb30204b7376ffa90.v_a27a7844871f0661c136594587240964" data-source-line="26" id="ent0018"><rect fill="#F1F1F1" height="47.6094" rx="2.5" ry="2.5" style="stroke:#181818;stroke-width:0.5;" width="750.4658" x="22" y="155"/><rect fill="#F1F1F1" height="10" style="stroke:#181818;stroke-width:0.5;" width="15" x="752.4658" y="160"/><rect fill="#F1F1F1" height="2" style="stroke:#181818;stroke-width:0.5;" width="4" x="750.4658" y="162"/><rect fill="#F1F1F1" height="2" style="stroke:#181818;stroke-width:0.5;" width="4" x="750.4658" y="166"/><text fill="#000000" font-family="sans-serif" font-size="14" lengthAdjust="spacing" textLength="710.4658" x="37" y="189.5332">[V] Governed self-implementation\nVERIFIED_REFERENCE\ncyber_lion/contracts/governed_change_proposal.py</text></g><!--entity v_b36cba56090ba220281507198f6de252--><g class="entity" data-qualified-name="n_13e9bcbaf756ab52cae6df48f4f88046.v_b36cba56090ba220281507198f6de252" data-source-line="29" id="ent0020"><rect fill="#F1F1F1" height="47.6094" rx="2.5" ry="2.5" style="stroke:#181818;stroke-width:0.5;" width="733.3008" x="12002.5" y="42"/><rect fill="#F1F1F1" height="10" style="stroke:#181818;stroke-width:0.5;" width="15" x="12715.8008" y="47"/><rect fill="#F1F1F1" height="2" style="stroke:#181818;stroke-width:0.5;" width="4" x="12713.8008" y="49"/><rect fill="#F1F1F1" height="2" style="stroke:#181818;stroke-width:0.5;" width="4" x="12713.8008" y="53"/><text fill="#000000" font-family="sans-serif" font-size="14" lengthAdjust="spacing" textLength="693.3008" x="12017.5" y="76.5332">[P] Trusted runtime enforcement\nPARTIALLY_IMPLEMENTED\ncyber_lion/enterprise/runtime_enforcement.py</text></g><!--entity v_bfef4736345ca91494e67933f2f645e1--><g class="entity" data-qualified-name="n_13e9bcbaf756ab52cae6df48f4f88046.v_bfef4736345ca91494e67933f2f645e1" data-source-line="30" id="ent0021"><rect fill="#F1F1F1" height="47.6094" rx="2.5" ry="2.5" style="stroke:#181818;stroke-width:0.5;" width="570.6738" x="11396.5" y="42"/><rect fill="#F1F1F1" height="10" style="stroke:#181818;stroke-width:0.5;" width="15" x="11947.1738" y="47"/><rect fill="#F1F1F1" height="2" style="stroke:#181818;stroke-width:0.5;" width="4" x="11945.1738" y="49"/><rect fill="#F1F1F1" height="2" style="stroke:#181818;stroke-width:0.5;" width="4" x="11945.1738" y="53"/><text fill="#000000" font-family="sans-serif" font-size="14" lengthAdjust="spacing" textLength="530.6738" x="11411.5" y="76.5332">[Q] F005 runtime plane\nQUARANTINED\n.lion/runtime/f005-runtime-plane-state.json</text></g><!--entity n_db08c34f904a5fd43702a8dbb55340f2--><g class="entity" data-qualified-name="n_db08c34f904a5fd43702a8dbb55340f2" data-source-line="32" id="ent0022"><path d="M4697,37 L4970.7158,37 A3.75,3.75 0 0 1 4973.2158,39.5 L4980.2158,60.6094 L4994.7158,60.6094 A2.5,2.5 0 0 1 4997.2158,63.1094 L4997.2158,92.7188 A2.5,2.5 0 0 1 4994.7158,95.2188 L4697,95.2188 A2.5,2.5 0 0 1 4694.5,92.7188 L4694.5,39.5 A2.5,2.5 0 0 1 4697,37" fill="#F1F1F1" style="stroke:#181818;stroke-width:0.5;"/><line style="stroke:#181818;stroke-width:0.5;" x1="4694.5" x2="4980.2158" y1="60.6094" y2="60.6094"/><text fill="#000000" font-family="sans-serif" font-size="14" font-weight="700" lengthAdjust="spacing" textLength="260.7158" x="4704.5" y="54.5332">n_db08c34f904a5fd43702a8dbb55340f2</text><text fill="#000000" font-family="sans-serif" font-size="14" lengthAdjust="spacing" textLength="73.9033" x="4704.5" y="82.1426">08 EFFECT</text></g><!--entity v_906f2cd0b85174a1a4c558f9842c83c7--><g class="entity" data-qualified-name="n_c55d0b89e3f10a7a9412f96a2c424a37.v_906f2cd0b85174a1a4c558f9842c83c7" data-source-line="35" id="ent0024"><rect fill="#F1F1F1" height="47.6094" rx="2.5" ry="2.5" style="stroke:#181818;stroke-width:0.5;" width="725.5215" x="12792" y="42"/><rect fill="#F1F1F1" height="10" style="stroke:#181818;stroke-width:0.5;" width="15" x="13497.5215" y="47"/><rect fill="#F1F1F1" height="2" style="stroke:#181818;stroke-width:0.5;" width="4" x="13495.5215" y="49"/><rect fill="#F1F1F1" height="2" style="stroke:#181818;stroke-width:0.5;" width="4" x="13495.5215" y="53"/><text fill="#000000" font-family="sans-serif" font-size="14" lengthAdjust="spacing" textLength="685.5215" x="12807" y="76.5332">[V] Observability and reconciliation\nVERIFIED_REFERENCE\ncyber_lion/enterprise/runtime_reconciliation.py</text></g><!--entity n_70bf35a1490866d1e1f7aa6d25391b65--><g class="entity" data-qualified-name="IMPLEMENTATION GAP OVERLAY.n_70bf35a1490866d1e1f7aa6d25391b65" data-source-line="38" id="ent0026"><rect fill="#F1F1F1" height="47.6094" rx="2.5" ry="2.5" style="stroke:#181818;stroke-width:0.5;" width="699.6953" x="1615" y="42"/><rect fill="#F1F1F1" height="10" style="stroke:#181818;stroke-width:0.5;" width="15" x="2294.6953" y="47"/><rect fill="#F1F1F1" height="2" style="stroke:#181818;stroke-width:0.5;" width="4" x="2292.6953" y="49"/><rect fill="#F1F1F1" height="2" style="stroke:#181818;stroke-width:0.5;" width="4" x="2292.6953" y="53"/><text fill="#000000" font-family="sans-serif" font-size="14" lengthAdjust="spacing" textLength="659.6953" x="1630" y="76.5332">[T] BeanCandidate\nTARGET_ONLY\nexact BeanSpec-to-implementation binding | define BeanCandidate</text></g><!--entity n_85daa690c9b9fbdcbb7923c13cce320c--><g class="entity" data-qualified-name="IMPLEMENTATION GAP OVERLAY.n_85daa690c9b9fbdcbb7923c13cce320c" data-source-line="39" id="ent0027"><rect fill="#F1F1F1" height="47.6094" rx="2.5" ry="2.5" style="stroke:#181818;stroke-width:0.5;" width="807.874" x="3099" y="42"/><rect fill="#F1F1F1" height="10" style="stroke:#181818;stroke-width:0.5;" width="15" x="3886.874" y="47"/><rect fill="#F1F1F1" height="2" style="stroke:#181818;stroke-width:0.5;" width="4" x="3884.874" y="49"/><rect fill="#F1F1F1" height="2" style="stroke:#181818;stroke-width:0.5;" width="4" x="3884.874" y="53"/><text fill="#000000" font-family="sans-serif" font-size="14" lengthAdjust="spacing" textLength="767.874" x="3114" y="76.5332">[T] BeanInstance\nTARGET_ONLY\nheterogeneous canonical Bean lifecycle | define BeanInstance after candidate contract</text></g><!--entity n_673ff1d0f1787bbfcda86a44dde35824--><g class="entity" data-qualified-name="IMPLEMENTATION GAP OVERLAY.n_673ff1d0f1787bbfcda86a44dde35824" data-source-line="40" id="ent0028"><rect fill="#F1F1F1" height="47.6094" rx="2.5" ry="2.5" style="stroke:#181818;stroke-width:0.5;" width="716.8057" x="3942.5" y="42"/><rect fill="#F1F1F1" height="10" style="stroke:#181818;stroke-width:0.5;" width="15" x="4639.3057" y="47"/><rect fill="#F1F1F1" height="2" style="stroke:#181818;stroke-width:0.5;" width="4" x="4637.3057" y="49"/><rect fill="#F1F1F1" height="2" style="stroke:#181818;stroke-width:0.5;" width="4" x="4637.3057" y="53"/><text fill="#000000" font-family="sans-serif" font-size="14" lengthAdjust="spacing" textLength="676.8057" x="3957.5" y="76.5332">[T] BeanSpec\nTARGET_ONLY\ndomain-independent evolvable capability unit | define immutable BeanSpec</text></g><!--entity n_fa1ba152dd043f796512904d17ffb406--><g class="entity" data-qualified-name="IMPLEMENTATION GAP OVERLAY.n_fa1ba152dd043f796512904d17ffb406" data-source-line="41" id="ent0029"><rect fill="#F1F1F1" height="47.6094" rx="2.5" ry="2.5" style="stroke:#181818;stroke-width:0.5;" width="715.9443" x="1708" y="155"/><rect fill="#F1F1F1" height="10" style="stroke:#181818;stroke-width:0.5;" width="15" x="2403.9443" y="160"/><rect fill="#F1F1F1" height="2" style="stroke:#181818;stroke-width:0.5;" width="4" x="2401.9443" y="162"/><rect fill="#F1F1F1" height="2" style="stroke:#181818;stroke-width:0.5;" width="4" x="2401.9443" y="166"/><text fill="#000000" font-family="sans-serif" font-size="14" lengthAdjust="spacing" textLength="675.9443" x="1723" y="189.5332">[T] CompositionContract\nTARGET_ONLY\ngeneric Bean composition contract | define CompositionContract</text></g><!--entity n_60a383bb2a8aa8837aaf0d0fa8c7c91a--><g class="entity" data-qualified-name="IMPLEMENTATION GAP OVERLAY.n_60a383bb2a8aa8837aaf0d0fa8c7c91a" data-source-line="42" id="ent0030"><rect fill="#F1F1F1" height="47.6094" rx="2.5" ry="2.5" style="stroke:#181818;stroke-width:0.5;" width="1026.4121" x="2459" y="155"/><rect fill="#F1F1F1" height="10" style="stroke:#181818;stroke-width:0.5;" width="15" x="3465.4121" y="160"/><rect fill="#F1F1F1" height="2" style="stroke:#181818;stroke-width:0.5;" width="4" x="3463.4121" y="162"/><rect fill="#F1F1F1" height="2" style="stroke:#181818;stroke-width:0.5;" width="4" x="3463.4121" y="166"/><text fill="#000000" font-family="sans-serif" font-size="14" lengthAdjust="spacing" textLength="986.4121" x="2474" y="189.5332">[T] CompositionEngine\nTARGET_ONLY\ngeneric capability/authority/epistemic-aware composition engine | implement deterministic composition after contract</text></g><!--entity n_94d1eba8a0fa9a42c902d9053dca1516--><g class="entity" data-qualified-name="IMPLEMENTATION GAP OVERLAY.n_94d1eba8a0fa9a42c902d9053dca1516" data-source-line="43" id="ent0031"><rect fill="#F1F1F1" height="47.6094" rx="2.5" ry="2.5" style="stroke:#181818;stroke-width:0.5;" width="684.7861" x="3520.5" y="155"/><rect fill="#F1F1F1" height="10" style="stroke:#181818;stroke-width:0.5;" width="15" x="4185.2861" y="160"/><rect fill="#F1F1F1" height="2" style="stroke:#181818;stroke-width:0.5;" width="4" x="4183.2861" y="162"/><rect fill="#F1F1F1" height="2" style="stroke:#181818;stroke-width:0.5;" width="4" x="4183.2861" y="166"/><text fill="#000000" font-family="sans-serif" font-size="14" lengthAdjust="spacing" textLength="644.7861" x="3535.5" y="189.5332">[T] Gap\nTARGET_ONLY\ncanonical WORLD/SYSTEM/GOAL difference contract | define Gap contract</text></g><!--entity n_19136c4963d3b9e307a663eaf9db7073--><g class="entity" data-qualified-name="IMPLEMENTATION GAP OVERLAY.n_19136c4963d3b9e307a663eaf9db7073" data-source-line="44" id="ent0032"><rect fill="#F1F1F1" height="47.6094" rx="2.5" ry="2.5" style="stroke:#181818;stroke-width:0.5;" width="1087.1357" x="1615.5" y="263"/><rect fill="#F1F1F1" height="10" style="stroke:#181818;stroke-width:0.5;" width="15" x="2682.6357" y="268"/><rect fill="#F1F1F1" height="2" style="stroke:#181818;stroke-width:0.5;" width="4" x="2680.6357" y="270"/><rect fill="#F1F1F1" height="2" style="stroke:#181818;stroke-width:0.5;" width="4" x="2680.6357" y="274"/><text fill="#000000" font-family="sans-serif" font-size="14" lengthAdjust="spacing" textLength="1047.1357" x="1630.5" y="297.5332">[?] GlobalCompleteMediation\nUNKNOWN\nrepository/runtime reference implementations do not prove system-wide coverage | enumerate consequential effect surfaces</text></g><!--entity n_9feed197de04eff3a3f8eb299bd8acfa--><g class="entity" data-qualified-name="IMPLEMENTATION GAP OVERLAY.n_9feed197de04eff3a3f8eb299bd8acfa" data-source-line="45" id="ent0033"><rect fill="#F1F1F1" height="47.6094" rx="2.5" ry="2.5" style="stroke:#181818;stroke-width:0.5;" width="707.4336" x="2737.5" y="263"/><rect fill="#F1F1F1" height="10" style="stroke:#181818;stroke-width:0.5;" width="15" x="3424.9336" y="268"/><rect fill="#F1F1F1" height="2" style="stroke:#181818;stroke-width:0.5;" width="4" x="3422.9336" y="270"/><rect fill="#F1F1F1" height="2" style="stroke:#181818;stroke-width:0.5;" width="4" x="3422.9336" y="274"/><text fill="#000000" font-family="sans-serif" font-size="14" lengthAdjust="spacing" textLength="667.4336" x="2752.5" y="297.5332">[T] GoalContract\nTARGET_ONLY\ncanonical domain-independent root goal contract | define GoalContract</text></g><!--entity n_8645886be6b87a17fc390b387b556a13--><g class="entity" data-qualified-name="IMPLEMENTATION GAP OVERLAY.n_8645886be6b87a17fc390b387b556a13" data-source-line="46" id="ent0034"><rect fill="#F1F1F1" height="47.6094" rx="2.5" ry="2.5" style="stroke:#181818;stroke-width:0.5;" width="770.4404" x="3480" y="263"/><rect fill="#F1F1F1" height="10" style="stroke:#181818;stroke-width:0.5;" width="15" x="4230.4404" y="268"/><rect fill="#F1F1F1" height="2" style="stroke:#181818;stroke-width:0.5;" width="4" x="4228.4404" y="270"/><rect fill="#F1F1F1" height="2" style="stroke:#181818;stroke-width:0.5;" width="4" x="4228.4404" y="274"/><text fill="#000000" font-family="sans-serif" font-size="14" lengthAdjust="spacing" textLength="730.4404" x="3495" y="297.5332">[T] SystemSnapshot\nTARGET_ONLY\ncanonical machine-readable system-state snapshot | define SystemSnapshot</text></g><!--entity n_454e1532eecf729ee7f949ae8df90736--><g class="entity" data-qualified-name="IMPLEMENTATION GAP OVERLAY.n_454e1532eecf729ee7f949ae8df90736" data-source-line="47" id="ent0035"><rect fill="#F1F1F1" height="47.6094" rx="2.5" ry="2.5" style="stroke:#181818;stroke-width:0.5;" width="712.8682" x="2350.5" y="42"/><rect fill="#F1F1F1" height="10" style="stroke:#181818;stroke-width:0.5;" width="15" x="3043.3682" y="47"/><rect fill="#F1F1F1" height="2" style="stroke:#181818;stroke-width:0.5;" width="4" x="3041.3682" y="49"/><rect fill="#F1F1F1" height="2" style="stroke:#181818;stroke-width:0.5;" width="4" x="3041.3682" y="53"/><text fill="#000000" font-family="sans-serif" font-size="14" lengthAdjust="spacing" textLength="672.8682" x="2365.5" y="76.5332">[T] WorldSnapshot\nTARGET_ONLY\ncanonical world-state snapshot | define source-bound WorldSnapshot</text></g><g class="entity" data-qualified-name="GMN36" data-source-line="61" id="ent0037"><path d="M4692.5,157.5 L4692.5,200.2031 L5153.5386,200.2031 L5153.5386,167.5 L5143.5386,157.5 L4692.5,157.5" fill="#FEFFDD" style="stroke:#181818;stroke-width:0.5;"/><path d="M5143.5386,157.5 L5143.5386,167.5 L5153.5386,167.5 L5143.5386,157.5" fill="#FEFFDD" style="stroke:#181818;stroke-width:1;"/><text fill="#000000" font-family="sans-serif" font-size="13" lengthAdjust="spacing" textLength="440.0386" x="4698.5" y="175.9951">Derived projection only; no runtime proof, authority, or permission is created.</text><text fill="#000000" font-family="sans-serif" font-size="13" lengthAdjust="spacing" textLength="401.0386" x="4698.5" y="192.3467">AS-IS and TARGET are evidence statuses over one canonical model.</text></g><!--link n_454e1532eecf729ee7f949ae8df90736 to GMN36--><g class="link" data-entity-1="ent0035" data-entity-2="ent0037" data-link-type="association" data-source-line="61" id="lnk38"><path d="M2862.65,90.01 C2929.95,99.05 3009.7,108.55 3082,114 C3788.68,167.24 3968.57,113.01 4676,155 C4688.15,155.72 4700.62,156.56 4713.2,157.49" fill="none" id="n_454e1532eecf729ee7f949ae8df90736-GMN36" style="stroke:#181818;stroke-width:1;stroke-dasharray:7,7;"/></g><g class="legend" data-source-line="49"><rect fill="#DDDDDD" height="168.4844" rx="7.5" ry="7.5" style="stroke:#000000;stroke-width:1;" width="311.9092" x="6615.0454" y="348"/><text fill="#000000" font-family="sans-serif" font-size="14" lengthAdjust="spacing" textLength="301.9092" x="6620.0454" y="367.5332">Status is explicit text; color is never authoritative.</text><text fill="#000000" font-family="sans-serif" font-size="14" lengthAdjust="spacing" textLength="116.6826" x="6620.0454" y="385.1426">[I] IMPLEMENTED</text><text fill="#000000" font-family="sans-serif" font-size="14" lengthAdjust="spacing" textLength="205.3926" x="6620.0454" y="402.752">[P] PARTIALLY_IMPLEMENTED</text><text fill="#000000" font-family="sans-serif" font-size="14" lengthAdjust="spacing" textLength="145.4619" x="6620.0454" y="420.3613">[C] CONTRACT_ONLY</text><text fill="#000000" font-family="sans-serif" font-size="14" lengthAdjust="spacing" textLength="179.7031" x="6620.0454" y="437.9707">[V] VERIFIED_REFERENCE</text><text fill="#000000" font-family="sans-serif" font-size="14" lengthAdjust="spacing" textLength="122.9102" x="6620.0454" y="455.5801">[T] TARGET_ONLY</text><text fill="#000000" font-family="sans-serif" font-size="14" lengthAdjust="spacing" textLength="93.3379" x="6620.0454" y="473.1895">[?] UNKNOWN</text><text fill="#000000" font-family="sans-serif" font-size="14" lengthAdjust="spacing" textLength="124.4551" x="6620.0454" y="490.7988">[Q] QUARANTINED</text><text fill="#000000" font-family="sans-serif" font-size="14" lengthAdjust="spacing" textLength="117.4756" x="6620.0454" y="508.4082">[S] SUPERSEDED</text></g><?plantuml-src fLXTR-F65NtNhnXiWVObNizmlX44XMBBZX2lj97b3RP98Cp77IzJYLH9oedRzB_tag8iQQKDTj4Nmx8rmtFFt7lE6JRbcZGbyMNJb2iIymf2avV5u6-aBZTLW4LJ0Nn3XOqyS1MKZzhI50qr8BCOcGd06SkS0w-fncMk2X_o1dVPLB1ObH6MYvW_GjryOpnuOO6vBD2WhQCyapQZXdDBQJ8QF6DHEEKJzOnBI3G6pY2ZMP8Md1wiNVYdUmJoYZBoutHsTxqOJguNjzFXtVqhucfIB5WqFWOTGyBT4PWAKikWU7B6Kny4-S-0a52krcK1HKDU_VJs5tB_N3UmmhyM3VpU45T4qhZg4HeaPLD4Lpt__7FnTZYRZuTtT-yNupTlxqPlHfFvw1h_7fuzL8ibCdOv7yvkH_F5S7RrtNW-kfe_p4QlLx43zhI8qYiPWKcMk4w66McrqfA7J6UMclWHhFalPBx5y2suWjouq9GTZluXqydT-yzv-byyBhz8s-Kz562HMWgHCgqWPen9GHbp4AXqL4CS_FU0w8oCteslHvEhKSVrR3Iydqx6azkUxnGbLPapLddl17SouM6n62YtodglJ_X-zmiPFUKHYW0Tqx3EM_RpG6P_RVbyDvgDRyQZzaaterdxtECosrEgi9pw4fxAvQPjLJoWHLN4r-jTWOuA4IZBb02QAQDOGiQvebB8b6GCfv2keO5gbHU81P44R5go1cp-TRl_Pw32ZQ1QLtaDb-tYnNxn7bLGWciyU96y3S9BgtG8Xl6C9P6Ca4UqSwHzUlSm7qydFTE0fqIvIyWqe-2vy61I33uonGMLyJpJUugGwJ9y-B9QZYZkrk_BCIRXd1gSV30sKYqufnHS0XqJCFfnGuznpd2gcirwZueC7_6V-FHFZbIzNR9mxHSlIrGMr97AOJFlWU0P2-QvCw02WFDPG971ngPHUvauE-9LaEdiTZWP_sFOKjkrzCtTQ3JlIKRDqKn9pJdFV6BEMHMu334JsCmPi-VausO9i5MD-ZTNhKXPFReY_xVhM-SpXEE0yKulwuDMpbHcCX5zI8d7O40ur5zKZSYqy_QuQIGPFio_cyx6y_UzCE9PJuPumhjfnOFAWf4ceCfIoxoZZbhdWwMIEshEzT1LMU1GDDi3QwjyB9-WAXmEy9SrqxfSvk5vyUWQsDSdF5fAPhbnJ89ng8HCXgI52KbbMFSfdk6c-L1MUVEybO-Kq6aEXVh_HGIW9SYeeeZ0bSQUCap7A6LqMZeHZXXNvDk7SMz3BySxF9ZQwA9D2NVqplfC9yzfHeNNNAkKiDopZBkYBFBWbaTMIjPL-UlMcp-ZoYCJtg-yH8EhEZFO5umoXCueGNYUyUYvpb9C71mmrPhy6RMSeHJKUUiePBLfkaOd5IIeEbLVk-OBPQPwsM-nsmyLTBs7Y93GpIKYei8uAZ6016lR649zZDQUGhpjcXHm9c6PBlBLUWah_AVxJFhsBlFORxG87rpns769ODtoS4IrqqO8ercYIh70k99MIACpGQqIHmsZoNpsS3zld_mmcO_Vx2QJSR0-U8UjefoNMN2WOXAcjGP3XJedFFDgWzOPIRKfcdm518g42jdL-SMwq--nEDXZNw77tEUTHCMWtcKOnt18gMRM91KXazb7q7v0JQGeHZjSwwKhMgtuuM4u6sBHamx7wmv2_vtBX0ik-WyNtO8Br7wSor_hijZ1I924vcXtCZZBX1MWK0jvof8Is1n7H1iokhd16BIRGqzDu29PAZ2ZH7HYYgabUYybkcVAaD_3rPPClxqVpTxjNM8skffEhiPtuyFf3gWAr1iBF37gjBE2PMZGc6z59Xm_ctwcleRgoVbykTCmJDnb4V2p-_AqiJktuptsHsUfIbbeGKgcXMCeO5AQP8r07-117rPzB63aTlYMj0PoDtp_wgGGpATjC4MfYdd4Spf9fl0xZa_tdVirX8kc_6W8YSznQV58_Y0HKbx0yNuzmPhwnAN3iwP6gSW0evnpAcQIetifUHxL61shzwTZK1_Qc5TYbe1oKvFmehDTnbxcQ2NFOGd7a7QR4PTmSRjeYv3iDAA7Qj0WdB8qM6yJta4m_DgCenW4l21bD9o7sf9p0ZEMAvSN5qWGh05_u88sYM7J8BZWrhlcsHHvimURhrhnRB-osxX7fZHFcCbfOjfexrE8pYWdH4I3anWkJf5TjHzHaV6ShlegJq2sB5OObZlkmdx12ozxP6UssmKIXnc4jVT8AdZILac6jo61uIObBwZwKsYZuZ4lu9F0zaHTkbrck7ovRbmu36jm11ow_H3sIwTY0SVtWlsN-suuBaTHnmt7fEYCSyPmx5MymrAyV0OTB7EdvTowzUcbxgKlkplkvVrxD8mtb-qr5-_dQUUpfppZPXyZiiWbPWyqJKmR3eVUqYosQIy6v9rzJF3V4T6oz6xPqhp4ujz0V96bXydta-cF4_njRzWx0Jhm_-CvhqaiIL4sRNnv0b9tT-sBt_06Y0z6QssLvm-aVhF2txTJLSE_DhWyHmBwU5TlAhp2GhqpIuiM6p3ayyWzYY_LJYbCB1XlstSG_0pDPLlI9pfvp_UPmQjAnFw8oy_nVR3hZky449dL4QX0yDpnPC1drlfeN4XdEc3xzk6-SElwG_bdu5OE8ntwOWKkTcFUSzdv9Adx3VReZZVUgHGwfJ7AW_96EnopmD7KEUg2nE31pb3tOrajusV0-wtztYV1RDybNNGv_NZB7fYG0fZa6G36_ynY2azMMBnRHlHiD7qqgYNWQCS1NYCRLE-y9l3x6WCyQc3xtkPh1Buig_Rl1M1ZaTtGOni-mUj1UmCzI4A3Da6TpKY3dwvGPgQJ-MnujQrpqFhsgIaFkhSqUpe6xVZqGp9eKz11u1dyT8z7_V1sDBiVNUD7BAGl1sS3-hTlWsiKhYTCTFl0JifY-Vmr3j0-JM57fgzUgdl-2Y-SxSkALLxNxGAiFs2BO31yFHZUNuplkuonXKbQoOFTwvUw8n9gqiuXFWWE7B6xXxvkORR32_y3?></g></svg>